<?xml version="1.0" encoding="UTF-8"?>
<svg width="112px" height="112px" viewBox="0 0 112 112" xmlns="http://www.w3.org/2000/svg" xmlns:xlink="http://www.w3.org/1999/xlink" version="1.1">
 <!-- Generated by Pixelmator Pro 2.0.1 -->
 <g id="val-logotyp-2020">
  <path id="Path" d="M106 57 C106 84.614 83.614 107 56 107 28.386 107 6 84.614 6 57 6 29.386 28.386 7 56 7 83.614 7 106 29.386 106 57 Z" fill="#0771b7" fill-opacity="1" stroke="none"/>
  <path id="Path-1" d="M79.36 83.72 L89.11 79.76 76.56 48.85 53.6 58.18 63.97 83.72 Z" fill="#ffdc12" fill-opacity="1" stroke="none"/>
  <path id="Path-2" d="M55.21 75.86 L46.74 55 64.19 47.91 60.58 39.01 37.61 48.34 48.79 75.86 Z" fill="#ffffff" fill-opacity="1" stroke="none"/>
  <path id="Path-3" d="M39.58 66.16 L31.12 45.33 48.58 38.24 44.96 29.34 22 38.67 33.16 66.16 Z" fill="#81cff4" fill-opacity="1" stroke="none"/>
 </g>
</svg>
